<?xml version="1.0" encoding="UTF-8"?> 
        <svg width="1000" height="1000" viewBox="0 0 1000 1000"
        xmlns="http://www.w3.org/2000/svg"
        xmlns:xlink="http://www.w3.org/1999/xlink">
        <circle cx="100" cy="100" r="37" fill="#CBCBCB" fill-opacity="1.0" />
<circle cx="100" cy="200" r="37" fill="#E5E5E5" fill-opacity="1.0" />
<circle cx="100" cy="300" r="49" fill="#BCBCBC" fill-opacity="1.0" />
<circle cx="100" cy="400" r="45" fill="#D1D1D1" fill-opacity="1.0" />
<circle cx="100" cy="500" r="48" fill="#9C9C9C" fill-opacity="1.0" />
<circle cx="100" cy="600" r="39" fill="#C1C1C1" fill-opacity="1.0" />
<circle cx="100" cy="700" r="24" fill="#C8C8C8" fill-opacity="1.0" />
<circle cx="100" cy="800" r="41" fill="#D2D2D2" fill-opacity="1.0" />
<circle cx="100" cy="900" r="29" fill="#F7F7F7" fill-opacity="1.0" />
<circle cx="200" cy="100" r="30" fill="#E6E6E6" fill-opacity="1.0" />
<circle cx="200" cy="200" r="47" fill="#F5F5F5" fill-opacity="1.0" />
<circle cx="200" cy="300" r="40" fill="#D7D7D7" fill-opacity="1.0" />
<circle cx="200" cy="400" r="27" fill="#B4B4B4" fill-opacity="1.0" />
<circle cx="200" cy="500" r="36" fill="#9C9C9C" fill-opacity="1.0" />
<circle cx="200" cy="600" r="36" fill="#A3A3A3" fill-opacity="1.0" />
<circle cx="200" cy="700" r="33" fill="#CECECE" fill-opacity="1.0" />
<circle cx="200" cy="800" r="46" fill="#C6C6C6" fill-opacity="1.0" />
<circle cx="200" cy="900" r="46" fill="#CECECE" fill-opacity="1.0" />
<circle cx="300" cy="100" r="50" fill="#E2E2E2" fill-opacity="1.0" />
<circle cx="300" cy="200" r="50" fill="#F5F5F5" fill-opacity="1.0" />
<circle cx="300" cy="300" r="41" fill="#BBBBBB" fill-opacity="1.0" />
<circle cx="300" cy="400" r="31" fill="#F7F7F7" fill-opacity="1.0" />
<circle cx="300" cy="500" r="29" fill="#FEFEFE" fill-opacity="1.0" />
<circle cx="300" cy="600" r="48" fill="#E1E1E1" fill-opacity="1.0" />
<circle cx="300" cy="700" r="21" fill="#9B9B9B" fill-opacity="1.0" />
<circle cx="300" cy="800" r="41" fill="#E6E6E6" fill-opacity="1.0" />
<circle cx="300" cy="900" r="29" fill="#AAAAAA" fill-opacity="1.0" />
<circle cx="400" cy="100" r="37" fill="#FDFDFD" fill-opacity="1.0" />
<circle cx="400" cy="200" r="23" fill="#9B9B9B" fill-opacity="1.0" />
<circle cx="400" cy="300" r="20" fill="#B8B8B8" fill-opacity="1.0" />
<circle cx="400" cy="400" r="21" fill="#9E9E9E" fill-opacity="1.0" />
<circle cx="400" cy="500" r="33" fill="#ACACAC" fill-opacity="1.0" />
<circle cx="400" cy="600" r="24" fill="#BBBBBB" fill-opacity="1.0" />
<circle cx="400" cy="700" r="36" fill="#E8E8E8" fill-opacity="1.0" />
<circle cx="400" cy="800" r="41" fill="#E2E2E2" fill-opacity="1.0" />
<circle cx="400" cy="900" r="22" fill="#FBFBFB" fill-opacity="1.0" />
<circle cx="500" cy="100" r="34" fill="#B2B2B2" fill-opacity="1.0" />
<circle cx="500" cy="200" r="35" fill="#D3D3D3" fill-opacity="1.0" />
<circle cx="500" cy="300" r="36" fill="#B3B3B3" fill-opacity="1.0" />
<circle cx="500" cy="400" r="21" fill="#9A9A9A" fill-opacity="1.0" />
<circle cx="500" cy="500" r="35" fill="#BFBFBF" fill-opacity="1.0" />
<circle cx="500" cy="600" r="48" fill="#EDEDED" fill-opacity="1.0" />
<circle cx="500" cy="700" r="39" fill="#999999" fill-opacity="1.0" />
<circle cx="500" cy="800" r="40" fill="#C4C4C4" fill-opacity="1.0" />
<circle cx="500" cy="900" r="33" fill="#BBBBBB" fill-opacity="1.0" />
<circle cx="600" cy="100" r="24" fill="#B2B2B2" fill-opacity="1.0" />
<circle cx="600" cy="200" r="41" fill="#A2A2A2" fill-opacity="1.0" />
<circle cx="600" cy="300" r="47" fill="#CECECE" fill-opacity="1.0" />
<circle cx="600" cy="400" r="33" fill="#FBFBFB" fill-opacity="1.0" />
<circle cx="600" cy="500" r="49" fill="#CDCDCD" fill-opacity="1.0" />
<circle cx="600" cy="600" r="35" fill="#ECECEC" fill-opacity="1.0" />
<circle cx="600" cy="700" r="34" fill="#E5E5E5" fill-opacity="1.0" />
<circle cx="600" cy="800" r="24" fill="#B3B3B3" fill-opacity="1.0" />
<circle cx="600" cy="900" r="43" fill="#BCBCBC" fill-opacity="1.0" />
<circle cx="700" cy="100" r="31" fill="#D7D7D7" fill-opacity="1.0" />
<circle cx="700" cy="200" r="26" fill="#BCBCBC" fill-opacity="1.0" />
<circle cx="700" cy="300" r="22" fill="#A5A5A5" fill-opacity="1.0" />
<circle cx="700" cy="400" r="31" fill="#CACACA" fill-opacity="1.0" />
<circle cx="700" cy="500" r="23" fill="#DDDDDD" fill-opacity="1.0" />
<circle cx="700" cy="600" r="27" fill="#BBBBBB" fill-opacity="1.0" />
<circle cx="700" cy="700" r="42" fill="#B5B5B5" fill-opacity="1.0" />
<circle cx="700" cy="800" r="36" fill="#B5B5B5" fill-opacity="1.0" />
<circle cx="700" cy="900" r="36" fill="#D3D3D3" fill-opacity="1.0" />
<circle cx="800" cy="100" r="35" fill="#C1C1C1" fill-opacity="1.0" />
<circle cx="800" cy="200" r="38" fill="#ADADAD" fill-opacity="1.0" />
<circle cx="800" cy="300" r="22" fill="#BFBFBF" fill-opacity="1.0" />
<circle cx="800" cy="400" r="36" fill="#B0B0B0" fill-opacity="1.0" />
<circle cx="800" cy="500" r="48" fill="#A7A7A7" fill-opacity="1.0" />
<circle cx="800" cy="600" r="25" fill="#CACACA" fill-opacity="1.0" />
<circle cx="800" cy="700" r="22" fill="#9F9F9F" fill-opacity="1.0" />
<circle cx="800" cy="800" r="25" fill="#E9E9E9" fill-opacity="1.0" />
<circle cx="800" cy="900" r="35" fill="#D6D6D6" fill-opacity="1.0" />
<circle cx="900" cy="100" r="33" fill="#BCBCBC" fill-opacity="1.0" />
<circle cx="900" cy="200" r="47" fill="#CECECE" fill-opacity="1.0" />
<circle cx="900" cy="300" r="44" fill="#969696" fill-opacity="1.0" />
<circle cx="900" cy="400" r="41" fill="#B2B2B2" fill-opacity="1.0" />
<circle cx="900" cy="500" r="25" fill="#D0D0D0" fill-opacity="1.0" />
<circle cx="900" cy="600" r="35" fill="#B1B1B1" fill-opacity="1.0" />
<circle cx="900" cy="700" r="30" fill="#EEEEEE" fill-opacity="1.0" />
<circle cx="900" cy="800" r="47" fill="#FCFCFC" fill-opacity="1.0" />
<circle cx="900" cy="900" r="20" fill="#A2A2A2" fill-opacity="1.0" />
    </svg>