<?xml version="1.0" encoding="UTF-8"?> 
        <svg width="1000" height="1000" viewBox="0 0 1000 1000"
        xmlns="http://www.w3.org/2000/svg"
        xmlns:xlink="http://www.w3.org/1999/xlink">
        <circle cx="100" cy="100" r="37" fill="#A9A9A9" fill-opacity="1.0" />
<circle cx="100" cy="200" r="38" fill="#C3C3C3" fill-opacity="1.0" />
<circle cx="100" cy="300" r="40" fill="#AEAEAE" fill-opacity="1.0" />
<circle cx="100" cy="400" r="25" fill="#D5D5D5" fill-opacity="1.0" />
<circle cx="100" cy="500" r="39" fill="#F2F2F2" fill-opacity="1.0" />
<circle cx="100" cy="600" r="31" fill="#9F9F9F" fill-opacity="1.0" />
<circle cx="100" cy="700" r="37" fill="#C0C0C0" fill-opacity="1.0" />
<circle cx="100" cy="800" r="32" fill="#C1C1C1" fill-opacity="1.0" />
<circle cx="100" cy="900" r="26" fill="#F2F2F2" fill-opacity="1.0" />
<circle cx="200" cy="100" r="20" fill="#FEFEFE" fill-opacity="1.0" />
<circle cx="200" cy="200" r="40" fill="#E4E4E4" fill-opacity="1.0" />
<circle cx="200" cy="300" r="21" fill="#F7F7F7" fill-opacity="1.0" />
<circle cx="200" cy="400" r="45" fill="#FEFEFE" fill-opacity="1.0" />
<circle cx="200" cy="500" r="35" fill="#E6E6E6" fill-opacity="1.0" />
<circle cx="200" cy="600" r="36" fill="#9C9C9C" fill-opacity="1.0" />
<circle cx="200" cy="700" r="49" fill="#F8F8F8" fill-opacity="1.0" />
<circle cx="200" cy="800" r="43" fill="#BBBBBB" fill-opacity="1.0" />
<circle cx="200" cy="900" r="22" fill="#B4B4B4" fill-opacity="1.0" />
<circle cx="300" cy="100" r="26" fill="#B7B7B7" fill-opacity="1.0" />
<circle cx="300" cy="200" r="43" fill="#E1E1E1" fill-opacity="1.0" />
<circle cx="300" cy="300" r="26" fill="#F3F3F3" fill-opacity="1.0" />
<circle cx="300" cy="400" r="31" fill="#FFFFFF" fill-opacity="1.0" />
<circle cx="300" cy="500" r="36" fill="#D8D8D8" fill-opacity="1.0" />
<circle cx="300" cy="600" r="35" fill="#DEDEDE" fill-opacity="1.0" />
<circle cx="300" cy="700" r="48" fill="#BABABA" fill-opacity="1.0" />
<circle cx="300" cy="800" r="38" fill="#E3E3E3" fill-opacity="1.0" />
<circle cx="300" cy="900" r="27" fill="#979797" fill-opacity="1.0" />
<circle cx="400" cy="100" r="46" fill="#B0B0B0" fill-opacity="1.0" />
<circle cx="400" cy="200" r="20" fill="#B9B9B9" fill-opacity="1.0" />
<circle cx="400" cy="300" r="28" fill="#DCDCDC" fill-opacity="1.0" />
<circle cx="400" cy="400" r="22" fill="#C9C9C9" fill-opacity="1.0" />
<circle cx="400" cy="500" r="45" fill="#AEAEAE" fill-opacity="1.0" />
<circle cx="400" cy="600" r="36" fill="#A8A8A8" fill-opacity="1.0" />
<circle cx="400" cy="700" r="49" fill="#C9C9C9" fill-opacity="1.0" />
<circle cx="400" cy="800" r="40" fill="#C4C4C4" fill-opacity="1.0" />
<circle cx="400" cy="900" r="28" fill="#BDBDBD" fill-opacity="1.0" />
<circle cx="500" cy="100" r="39" fill="#F0F0F0" fill-opacity="1.0" />
<circle cx="500" cy="200" r="41" fill="#B2B2B2" fill-opacity="1.0" />
<circle cx="500" cy="300" r="26" fill="#DCDCDC" fill-opacity="1.0" />
<circle cx="500" cy="400" r="46" fill="#B1B1B1" fill-opacity="1.0" />
<circle cx="500" cy="500" r="38" fill="#BEBEBE" fill-opacity="1.0" />
<circle cx="500" cy="600" r="47" fill="#B1B1B1" fill-opacity="1.0" />
<circle cx="500" cy="700" r="30" fill="#CCCCCC" fill-opacity="1.0" />
<circle cx="500" cy="800" r="22" fill="#D8D8D8" fill-opacity="1.0" />
<circle cx="500" cy="900" r="40" fill="#9E9E9E" fill-opacity="1.0" />
<circle cx="600" cy="100" r="34" fill="#9A9A9A" fill-opacity="1.0" />
<circle cx="600" cy="200" r="42" fill="#D5D5D5" fill-opacity="1.0" />
<circle cx="600" cy="300" r="36" fill="#D9D9D9" fill-opacity="1.0" />
<circle cx="600" cy="400" r="39" fill="#C5C5C5" fill-opacity="1.0" />
<circle cx="600" cy="500" r="25" fill="#E6E6E6" fill-opacity="1.0" />
<circle cx="600" cy="600" r="45" fill="#E4E4E4" fill-opacity="1.0" />
<circle cx="600" cy="700" r="43" fill="#D1D1D1" fill-opacity="1.0" />
<circle cx="600" cy="800" r="43" fill="#999999" fill-opacity="1.0" />
<circle cx="600" cy="900" r="38" fill="#F4F4F4" fill-opacity="1.0" />
<circle cx="700" cy="100" r="41" fill="#F3F3F3" fill-opacity="1.0" />
<circle cx="700" cy="200" r="42" fill="#A5A5A5" fill-opacity="1.0" />
<circle cx="700" cy="300" r="48" fill="#EFEFEF" fill-opacity="1.0" />
<circle cx="700" cy="400" r="41" fill="#DDDDDD" fill-opacity="1.0" />
<circle cx="700" cy="500" r="34" fill="#D4D4D4" fill-opacity="1.0" />
<circle cx="700" cy="600" r="49" fill="#C3C3C3" fill-opacity="1.0" />
<circle cx="700" cy="700" r="22" fill="#FFFFFF" fill-opacity="1.0" />
<circle cx="700" cy="800" r="20" fill="#BBBBBB" fill-opacity="1.0" />
<circle cx="700" cy="900" r="31" fill="#EBEBEB" fill-opacity="1.0" />
<circle cx="800" cy="100" r="50" fill="#ADADAD" fill-opacity="1.0" />
<circle cx="800" cy="200" r="47" fill="#E6E6E6" fill-opacity="1.0" />
<circle cx="800" cy="300" r="50" fill="#BEBEBE" fill-opacity="1.0" />
<circle cx="800" cy="400" r="43" fill="#BBBBBB" fill-opacity="1.0" />
<circle cx="800" cy="500" r="22" fill="#C3C3C3" fill-opacity="1.0" />
<circle cx="800" cy="600" r="30" fill="#A7A7A7" fill-opacity="1.0" />
<circle cx="800" cy="700" r="36" fill="#EBEBEB" fill-opacity="1.0" />
<circle cx="800" cy="800" r="43" fill="#E8E8E8" fill-opacity="1.0" />
<circle cx="800" cy="900" r="30" fill="#EFEFEF" fill-opacity="1.0" />
<circle cx="900" cy="100" r="36" fill="#C4C4C4" fill-opacity="1.0" />
<circle cx="900" cy="200" r="27" fill="#F6F6F6" fill-opacity="1.0" />
<circle cx="900" cy="300" r="31" fill="#B2B2B2" fill-opacity="1.0" />
<circle cx="900" cy="400" r="21" fill="#C0C0C0" fill-opacity="1.0" />
<circle cx="900" cy="500" r="21" fill="#9F9F9F" fill-opacity="1.0" />
<circle cx="900" cy="600" r="21" fill="#C3C3C3" fill-opacity="1.0" />
<circle cx="900" cy="700" r="45" fill="#D2D2D2" fill-opacity="1.0" />
<circle cx="900" cy="800" r="40" fill="#B2B2B2" fill-opacity="1.0" />
<circle cx="900" cy="900" r="21" fill="#D3D3D3" fill-opacity="1.0" />
    </svg>