<?xml version="1.0" encoding="UTF-8"?> 
        <svg width="1000" height="1000" viewBox="0 0 1000 1000"
        xmlns="http://www.w3.org/2000/svg"
        xmlns:xlink="http://www.w3.org/1999/xlink">
        <rect x="0" y="0" width="1000" height="1000" fill="#2B2B2B" />
<circle cx="100" cy="100" r="44" fill="#FFFFFF" fill-opacity="1.0" />
<circle cx="100" cy="200" r="34" fill="#FEFEFE" fill-opacity="1.0" />
<circle cx="100" cy="300" r="49" fill="#E5E5E5" fill-opacity="1.0" />
<circle cx="100" cy="400" r="21" fill="#FDFDFD" fill-opacity="1.0" />
<circle cx="100" cy="500" r="27" fill="#989898" fill-opacity="1.0" />
<circle cx="100" cy="600" r="38" fill="#CCCCCC" fill-opacity="1.0" />
<circle cx="100" cy="700" r="48" fill="#FEFEFE" fill-opacity="1.0" />
<circle cx="100" cy="800" r="41" fill="#B1B1B1" fill-opacity="1.0" />
<circle cx="100" cy="900" r="31" fill="#F2F2F2" fill-opacity="1.0" />
<circle cx="200" cy="100" r="50" fill="#BCBCBC" fill-opacity="1.0" />
<circle cx="200" cy="200" r="43" fill="#9D9D9D" fill-opacity="1.0" />
<circle cx="200" cy="300" r="34" fill="#EAEAEA" fill-opacity="1.0" />
<circle cx="200" cy="400" r="20" fill="#CBCBCB" fill-opacity="1.0" />
<circle cx="200" cy="500" r="43" fill="#9B9B9B" fill-opacity="1.0" />
<circle cx="200" cy="600" r="32" fill="#B0B0B0" fill-opacity="1.0" />
<circle cx="200" cy="700" r="48" fill="#AFAFAF" fill-opacity="1.0" />
<circle cx="200" cy="800" r="39" fill="#A2A2A2" fill-opacity="1.0" />
<circle cx="200" cy="900" r="38" fill="#CECECE" fill-opacity="1.0" />
<circle cx="300" cy="100" r="31" fill="#9E9E9E" fill-opacity="1.0" />
<circle cx="300" cy="200" r="41" fill="#9E9E9E" fill-opacity="1.0" />
<circle cx="300" cy="300" r="22" fill="#EAEAEA" fill-opacity="1.0" />
<circle cx="300" cy="400" r="45" fill="#ADADAD" fill-opacity="1.0" />
<circle cx="300" cy="500" r="21" fill="#BBBBBB" fill-opacity="1.0" />
<circle cx="300" cy="600" r="25" fill="#999999" fill-opacity="1.0" />
<circle cx="300" cy="700" r="27" fill="#F9F9F9" fill-opacity="1.0" />
<circle cx="300" cy="800" r="42" fill="#EAEAEA" fill-opacity="1.0" />
<circle cx="300" cy="900" r="39" fill="#B9B9B9" fill-opacity="1.0" />
<circle cx="400" cy="100" r="33" fill="#FDFDFD" fill-opacity="1.0" />
<circle cx="400" cy="200" r="25" fill="#BCBCBC" fill-opacity="1.0" />
<circle cx="400" cy="300" r="39" fill="#ECECEC" fill-opacity="1.0" />
<circle cx="400" cy="400" r="29" fill="#D7D7D7" fill-opacity="1.0" />
<circle cx="400" cy="500" r="41" fill="#EEEEEE" fill-opacity="1.0" />
<circle cx="400" cy="600" r="25" fill="#BFBFBF" fill-opacity="1.0" />
<circle cx="400" cy="700" r="33" fill="#FEFEFE" fill-opacity="1.0" />
<circle cx="400" cy="800" r="49" fill="#A1A1A1" fill-opacity="1.0" />
<circle cx="400" cy="900" r="21" fill="#9B9B9B" fill-opacity="1.0" />
<circle cx="500" cy="100" r="23" fill="#EFEFEF" fill-opacity="1.0" />
<circle cx="500" cy="200" r="23" fill="#C3C3C3" fill-opacity="1.0" />
<circle cx="500" cy="300" r="46" fill="#9E9E9E" fill-opacity="1.0" />
<circle cx="500" cy="400" r="42" fill="#D6D6D6" fill-opacity="1.0" />
<circle cx="500" cy="500" r="39" fill="#9D9D9D" fill-opacity="1.0" />
<circle cx="500" cy="600" r="46" fill="#FEFEFE" fill-opacity="1.0" />
<circle cx="500" cy="700" r="39" fill="#D0D0D0" fill-opacity="1.0" />
<circle cx="500" cy="800" r="49" fill="#A8A8A8" fill-opacity="1.0" />
<circle cx="500" cy="900" r="30" fill="#C0C0C0" fill-opacity="1.0" />
<circle cx="600" cy="100" r="20" fill="#ECECEC" fill-opacity="1.0" />
<circle cx="600" cy="200" r="30" fill="#B8B8B8" fill-opacity="1.0" />
<circle cx="600" cy="300" r="38" fill="#BBBBBB" fill-opacity="1.0" />
<circle cx="600" cy="400" r="35" fill="#FCFCFC" fill-opacity="1.0" />
<circle cx="600" cy="500" r="22" fill="#A6A6A6" fill-opacity="1.0" />
<circle cx="600" cy="600" r="46" fill="#BBBBBB" fill-opacity="1.0" />
<circle cx="600" cy="700" r="23" fill="#FAFAFA" fill-opacity="1.0" />
<circle cx="600" cy="800" r="26" fill="#F9F9F9" fill-opacity="1.0" />
<circle cx="600" cy="900" r="37" fill="#E7E7E7" fill-opacity="1.0" />
<circle cx="700" cy="100" r="21" fill="#D5D5D5" fill-opacity="1.0" />
<circle cx="700" cy="200" r="35" fill="#CACACA" fill-opacity="1.0" />
<circle cx="700" cy="300" r="23" fill="#F9F9F9" fill-opacity="1.0" />
<circle cx="700" cy="400" r="42" fill="#B6B6B6" fill-opacity="1.0" />
<circle cx="700" cy="500" r="47" fill="#FDFDFD" fill-opacity="1.0" />
<circle cx="700" cy="600" r="39" fill="#ABABAB" fill-opacity="1.0" />
<circle cx="700" cy="700" r="38" fill="#D1D1D1" fill-opacity="1.0" />
<circle cx="700" cy="800" r="36" fill="#FBFBFB" fill-opacity="1.0" />
<circle cx="700" cy="900" r="33" fill="#AAAAAA" fill-opacity="1.0" />
<circle cx="800" cy="100" r="49" fill="#F7F7F7" fill-opacity="1.0" />
<circle cx="800" cy="200" r="48" fill="#9D9D9D" fill-opacity="1.0" />
<circle cx="800" cy="300" r="36" fill="#C3C3C3" fill-opacity="1.0" />
<circle cx="800" cy="400" r="35" fill="#EFEFEF" fill-opacity="1.0" />
<circle cx="800" cy="500" r="21" fill="#C9C9C9" fill-opacity="1.0" />
<circle cx="800" cy="600" r="20" fill="#CBCBCB" fill-opacity="1.0" />
<circle cx="800" cy="700" r="45" fill="#EDEDED" fill-opacity="1.0" />
<circle cx="800" cy="800" r="20" fill="#B5B5B5" fill-opacity="1.0" />
<circle cx="800" cy="900" r="46" fill="#D1D1D1" fill-opacity="1.0" />
<circle cx="900" cy="100" r="37" fill="#EFEFEF" fill-opacity="1.0" />
<circle cx="900" cy="200" r="49" fill="#AEAEAE" fill-opacity="1.0" />
<circle cx="900" cy="300" r="45" fill="#FBFBFB" fill-opacity="1.0" />
<circle cx="900" cy="400" r="38" fill="#9A9A9A" fill-opacity="1.0" />
<circle cx="900" cy="500" r="42" fill="#E2E2E2" fill-opacity="1.0" />
<circle cx="900" cy="600" r="32" fill="#C3C3C3" fill-opacity="1.0" />
<circle cx="900" cy="700" r="44" fill="#B9B9B9" fill-opacity="1.0" />
<circle cx="900" cy="800" r="26" fill="#E6E6E6" fill-opacity="1.0" />
<circle cx="900" cy="900" r="38" fill="#C1C1C1" fill-opacity="1.0" />
    </svg>